<?xml version="1.0" encoding="UTF-8"?>
<svg id="Ebene_1" data-name="Ebene 1" xmlns="http://www.w3.org/2000/svg" viewBox="0 0 1884 565">
  <defs>
    <style>
      .cls-1, .cls-2, .cls-3, .cls-4 {
        fill: #fff;
      }

      .cls-2, .cls-3, .cls-4 {
        font-size: 292.42px;
      }

      .cls-3 {
        letter-spacing: 0em;
      }

      .cls-5 {
        font-family: Arboria-Black, Arboria;
        font-weight: 800;
      }

      .cls-6, .cls-7, .cls-8 {
        fill: #ff7500;
      }

      .cls-9 {
        fill: #0534b8;
      }

      .cls-4 {
        letter-spacing: .02em;
      }

      .cls-7 {
        letter-spacing: -.03em;
      }

      .cls-7, .cls-8 {
        font-size: 438.63px;
      }

      .cls-8 {
        letter-spacing: -.03em;
      }
    </style>
  </defs>
  <g>
    <g>
      <g>
        <g>
          <ellipse class="cls-9" cx="200" cy="495" rx="195" ry="65"/>
          <path class="cls-1" d="m200,435c52.33,0,101.38,7.08,138.12,19.94,32.49,11.37,51.88,26.35,51.88,40.06s-19.4,28.69-51.88,40.06c-36.74,12.86-85.79,19.94-138.12,19.94s-101.38-7.08-138.12-19.94c-32.49-11.37-51.88-26.35-51.88-40.06s19.4-28.69,51.88-40.06c36.74-12.86,85.79-19.94,138.12-19.94m0-10C89.54,425,0,456.34,0,495s89.54,70,200,70,200-31.34,200-70-89.54-70-200-70h0Z"/>
        </g>
        <rect class="cls-9" x="10" y="375" width="380" height="120"/>
      </g>
      <g>
        <g>
          <ellipse class="cls-9" cx="200" cy="395" rx="195" ry="65"/>
          <path class="cls-1" d="m200,335c52.33,0,101.38,7.08,138.12,19.94,32.49,11.37,51.88,26.35,51.88,40.06s-19.4,28.69-51.88,40.06c-36.74,12.86-85.79,19.94-138.12,19.94s-101.38-7.08-138.12-19.94c-32.49-11.37-51.88-26.35-51.88-40.06s19.4-28.69,51.88-40.06c36.74-12.86,85.79-19.94,138.12-19.94m0-10C89.54,325,0,356.34,0,395s89.54,70,200,70,200-31.34,200-70-89.54-70-200-70h0Z"/>
        </g>
        <rect class="cls-9" x="10" y="275" width="380" height="120"/>
      </g>
      <g>
        <g>
          <ellipse class="cls-9" cx="200" cy="295" rx="195" ry="65"/>
          <path class="cls-1" d="m200,235c52.33,0,101.38,7.08,138.12,19.94,32.49,11.37,51.88,26.35,51.88,40.06s-19.4,28.69-51.88,40.06c-36.74,12.86-85.79,19.94-138.12,19.94s-101.38-7.08-138.12-19.94c-32.49-11.37-51.88-26.35-51.88-40.06s19.4-28.69,51.88-40.06c36.74-12.86,85.79-19.94,138.12-19.94m0-10C89.54,225,0,256.34,0,295s89.54,70,200,70,200-31.34,200-70-89.54-70-200-70h0Z"/>
        </g>
        <rect class="cls-9" x="10" y="175" width="380" height="120"/>
      </g>
      <g>
        <g>
          <ellipse class="cls-6" cx="200" cy="195" rx="195" ry="65"/>
          <path class="cls-1" d="m200,135c52.33,0,101.38,7.08,138.12,19.94,32.49,11.37,51.88,26.35,51.88,40.06s-19.4,28.69-51.88,40.06c-36.74,12.86-85.79,19.94-138.12,19.94s-101.38-7.08-138.12-19.94c-32.49-11.37-51.88-26.35-51.88-40.06s19.4-28.69,51.88-40.06c36.74-12.86,85.79-19.94,138.12-19.94m0-10C89.54,125,0,156.34,0,195s89.54,70,200,70,200-31.34,200-70-89.54-70-200-70h0Z"/>
        </g>
        <rect class="cls-6" x="10" y="75" width="380" height="120"/>
      </g>
      <g>
        <ellipse class="cls-6" cx="200" cy="70" rx="195" ry="65"/>
        <path class="cls-1" d="m200,10c52.33,0,101.38,7.08,138.12,19.94,32.49,11.37,51.88,26.35,51.88,40.06s-19.4,28.69-51.88,40.06c-36.74,12.86-85.79,19.94-138.12,19.94s-101.38-7.08-138.12-19.94c-32.49-11.37-51.88-26.35-51.88-40.06s19.4-28.69,51.88-40.06c36.74-12.86,85.79-19.94,138.12-19.94m0-10C89.54,0,0,31.34,0,70s89.54,70,200,70,200-31.34,200-70S310.46,0,200,0h0Z"/>
      </g>
    </g>
    <text class="cls-5" transform="translate(400 425.06)"><tspan class="cls-8" x="0" y="0">D</tspan><tspan class="cls-3" x="299.58" y="0">a</tspan><tspan class="cls-4" x="475.03" y="0">r</tspan><tspan class="cls-2" x="599.01" y="0">t</tspan><tspan class="cls-7" x="714.51" y="0">B</tspan><tspan class="cls-2" x="997.42" y="0">ase</tspan></text>
  </g>
  <rect class="cls-1" x="390" y="72.5" width="10" height="425"/>
  <rect class="cls-1" y="72.5" width="10" height="425"/>
</svg>