<?xml version="1.0" encoding="UTF-8"?>
<svg id="Ebene_1" data-name="Ebene 1" xmlns="http://www.w3.org/2000/svg" viewBox="0 0 1880.2 565">
  <defs>
    <style>
      .cls-1 {
        fill: #ff7500;
      }

      .cls-1, .cls-2, .cls-3 {
        stroke-width: 0px;
      }

      .cls-4 {
        isolation: isolate;
      }

      .cls-2 {
        fill: #0534b8;
      }

      .cls-3 {
        fill: #fff;
      }
    </style>
  </defs>
  <g>
    <g>
      <g>
        <g>
          <ellipse class="cls-2" cx="200" cy="495" rx="195" ry="65"/>
          <path class="cls-3" d="M200,435c52.33,0,101.38,7.08,138.12,19.94,32.49,11.37,51.88,26.35,51.88,40.06s-19.4,28.69-51.88,40.06c-36.74,12.86-85.79,19.94-138.12,19.94s-101.38-7.08-138.12-19.94c-32.49-11.37-51.88-26.35-51.88-40.06s19.4-28.69,51.88-40.06c36.74-12.86,85.79-19.94,138.12-19.94M200,425C89.54,425,0,456.34,0,495s89.54,70,200,70,200-31.34,200-70-89.54-70-200-70h0Z"/>
        </g>
        <rect class="cls-2" x="10" y="375" width="380" height="120"/>
      </g>
      <g>
        <g>
          <ellipse class="cls-2" cx="200" cy="395" rx="195" ry="65"/>
          <path class="cls-3" d="M200,335c52.33,0,101.38,7.08,138.12,19.94,32.49,11.37,51.88,26.35,51.88,40.06s-19.4,28.69-51.88,40.06c-36.74,12.86-85.79,19.94-138.12,19.94s-101.38-7.08-138.12-19.94c-32.49-11.37-51.88-26.35-51.88-40.06s19.4-28.69,51.88-40.06c36.74-12.86,85.79-19.94,138.12-19.94M200,325C89.54,325,0,356.34,0,395s89.54,70,200,70,200-31.34,200-70-89.54-70-200-70h0Z"/>
        </g>
        <rect class="cls-2" x="10" y="275" width="380" height="120"/>
      </g>
      <g>
        <g>
          <ellipse class="cls-2" cx="200" cy="295" rx="195" ry="65"/>
          <path class="cls-3" d="M200,235c52.33,0,101.38,7.08,138.12,19.94,32.49,11.37,51.88,26.35,51.88,40.06s-19.4,28.69-51.88,40.06c-36.74,12.86-85.79,19.94-138.12,19.94s-101.38-7.08-138.12-19.94c-32.49-11.37-51.88-26.35-51.88-40.06s19.4-28.69,51.88-40.06c36.74-12.86,85.79-19.94,138.12-19.94M200,225C89.54,225,0,256.34,0,295s89.54,70,200,70,200-31.34,200-70-89.54-70-200-70h0Z"/>
        </g>
        <rect class="cls-2" x="10" y="175" width="380" height="120"/>
      </g>
      <g>
        <g>
          <ellipse class="cls-1" cx="200" cy="195" rx="195" ry="65"/>
          <path class="cls-3" d="M200,135c52.33,0,101.38,7.08,138.12,19.94,32.49,11.37,51.88,26.35,51.88,40.06s-19.4,28.69-51.88,40.06c-36.74,12.86-85.79,19.94-138.12,19.94s-101.38-7.08-138.12-19.94c-32.49-11.37-51.88-26.35-51.88-40.06s19.4-28.69,51.88-40.06c36.74-12.86,85.79-19.94,138.12-19.94M200,125C89.54,125,0,156.34,0,195s89.54,70,200,70,200-31.34,200-70-89.54-70-200-70h0Z"/>
        </g>
        <rect class="cls-1" x="10" y="75" width="380" height="120"/>
      </g>
      <g>
        <ellipse class="cls-1" cx="200" cy="70" rx="195" ry="65"/>
        <path class="cls-3" d="M200,10c52.33,0,101.38,7.08,138.12,19.94,32.49,11.37,51.88,26.35,51.88,40.06s-19.4,28.69-51.88,40.06c-36.74,12.86-85.79,19.94-138.12,19.94s-101.38-7.08-138.12-19.94c-32.49-11.37-51.88-26.35-51.88-40.06s19.4-28.69,51.88-40.06c36.74-12.86,85.79-19.94,138.12-19.94M200,0C89.54,0,0,31.34,0,70s89.54,70,200,70,200-31.34,200-70S310.46,0,200,0h0Z"/>
      </g>
    </g>
    <g class="cls-4">
      <g class="cls-4">
        <path class="cls-1" d="M428.07,140.83h114.04c93.43,0,152.2,64.48,152.2,142.12s-58.78,142.12-152.2,142.12h-114.04V140.83ZM539.48,372.42c54.39,0,90.36-37.72,90.36-89.48s-35.97-89.48-90.36-89.48h-50v178.96h50Z"/>
      </g>
      <g class="cls-4">
        <path class="cls-3" d="M710.11,351.96c0-42.11,25.73-76.03,66.09-76.03,16.96,0,35.09,6.73,45.62,20.76v-17.84h38.31v146.21h-38.31v-17.54c-10.23,14.04-28.66,20.47-45.62,20.47-40.35,0-66.09-33.92-66.09-76.03ZM820.93,351.96c0-22.81-14.62-39.77-34.8-39.77s-36.26,16.96-36.26,39.77,15.21,39.77,36.26,39.77,34.8-16.38,34.8-39.77Z"/>
      </g>
      <g class="cls-4">
        <path class="cls-3" d="M889.94,278.85h38.6v28.07c4.09-11.99,19.01-31,51.17-31v42.69c-33.92,0-50.59,15.5-50.59,50.3v56.14h-39.18v-146.21Z"/>
      </g>
      <g class="cls-4">
        <path class="cls-3" d="M1023.87,377.98v-67.55h-21.35v-31.58h21.35v-28.07l39.18-8.77v36.84h40.35v31.58h-40.35v66.96c0,12.57,6.14,16.67,13.16,16.67,9.36,0,17.54-5.26,18.71-6.14l11.11,28.95c-8.77,5.85-21.64,11.11-37.14,11.11-29.24,0-45.03-16.96-45.03-50Z"/>
      </g>
      <g class="cls-4">
        <path class="cls-1" d="M1142.58,140.83h134.22c46.93,0,88.6,19.74,88.6,74.13,0,20.62-12.72,41.67-28.07,50.44,30.7,7.46,53.95,34.65,53.95,71.94,0,60.09-47.37,87.73-110.1,87.73h-138.61V140.83ZM1272.42,249.61c21.49,0,32.02-10.53,32.02-27.63s-10.53-28.51-33.34-28.51h-67.11v56.14h68.43ZM1278.12,372.42c29.39,0,49.13-10.53,49.13-35.97s-18.42-37.28-45.62-37.28h-77.64v73.25h74.13Z"/>
      </g>
      <g class="cls-4">
        <path class="cls-3" d="M1407.95,351.96c0-42.11,25.73-76.03,66.09-76.03,16.96,0,35.09,6.73,45.62,20.76v-17.84h38.31v146.21h-38.31v-17.54c-10.24,14.04-28.66,20.47-45.62,20.47-40.35,0-66.09-33.92-66.09-76.03ZM1518.77,351.96c0-22.81-14.62-39.77-34.8-39.77s-36.26,16.96-36.26,39.77,15.21,39.77,36.26,39.77,34.8-16.38,34.8-39.77Z"/>
        <path class="cls-3" d="M1580.18,408.1l14.04-30.12c9.94,7.6,23.69,15.5,45.62,15.5,9.07,0,23.98-3.51,23.98-12.28s-12.57-10.82-25.15-14.33c-28.95-7.6-52.64-17.25-52.64-45.33,0-29.83,29.24-45.62,56.73-45.62,23.98,0,39.18,5.85,54.39,14.62l-13.16,29.24c-14.33-7.02-27.78-10.23-40.65-10.23-9.06,0-17.54,4.09-17.54,10.23,0,8.19,12.28,10.82,25.73,13.74,24.86,5.85,52.05,16.67,52.05,46.5,0,35.97-36.55,47.96-63.75,47.96-31.29,0-51.47-12.28-59.65-19.88Z"/>
        <path class="cls-3" d="M1722.59,351.96c0-42.11,32.75-76.03,75.74-76.03,39.77,0,71.06,33.92,71.06,75.44,0,7.02-.88,14.04-.88,14.04h-106.15c4.68,20.18,21.35,29.83,40.65,29.83,14.04,0,28.66-4.09,39.48-11.4l14.62,28.07c-16.38,10.82-35.38,16.08-54.39,16.08-42.69,0-80.12-27.78-80.12-76.03ZM1832.54,339.38c-2.92-18.42-17.54-30.7-35.38-30.7s-31.58,12.28-35.38,30.7h70.77Z"/>
      </g>
    </g>
  </g>
  <rect class="cls-3" x="390" y="72.5" width="10" height="425"/>
  <rect class="cls-3" y="72.5" width="10" height="425"/>
</svg>